<?xml version="1.0" encoding="UTF-8" standalone="no"?>
<svg
   xmlns:dc="http://purl.org/dc/elements/1.1/"
   xmlns:cc="http://creativecommons.org/ns#"
   xmlns:rdf="http://www.w3.org/1999/02/22-rdf-syntax-ns#"
   xmlns:svg="http://www.w3.org/2000/svg"
   xmlns="http://www.w3.org/2000/svg"
   xmlns:sodipodi="http://sodipodi.sourceforge.net/DTD/sodipodi-0.dtd"
   xmlns:inkscape="http://www.inkscape.org/namespaces/inkscape"
   inkscape:version="1.0 (unknown)"
   sodipodi:docname="account.svg"
   id="svg20"
   version="1"
   height="512"
   width="512">
  <metadata
     id="metadata26">
    <rdf:RDF>
      <cc:Work
         rdf:about="">
        <dc:format>image/svg+xml</dc:format>
        <dc:type
           rdf:resource="http://purl.org/dc/dcmitype/StillImage" />
        <dc:title></dc:title>
      </cc:Work>
    </rdf:RDF>
  </metadata>
  <defs
     id="defs24" />
  <sodipodi:namedview
     inkscape:current-layer="svg20"
     inkscape:window-maximized="1"
     inkscape:window-y="27"
     inkscape:window-x="0"
     inkscape:cy="155.04162"
     inkscape:cx="-68.636536"
     inkscape:zoom="0.91786456"
     showgrid="false"
     id="namedview22"
     inkscape:window-height="1025"
     inkscape:window-width="1920"
     inkscape:pageshadow="2"
     inkscape:pageopacity="0"
     guidetolerance="10"
     gridtolerance="10"
     objecttolerance="10"
     borderopacity="1"
     bordercolor="#666666"
     pagecolor="#ffffff" />
  <g
     transform="matrix(8.4210526,0,0,8.4210526,-16.68421,-17.68421)"
     id="g55">
    <circle
       style="opacity:0.2;fill:#00100f"
       cx="32"
       cy="33"
       r="28"
       id="circle2" />
    <circle
       style="fill:#009587"
       cx="32"
       cy="32"
       r="28"
       id="circle4" />
    <g
       style="opacity:0.2"
       transform="translate(0,1)"
       id="g10">
      <path
         d="m 32,14 c -3.8668,0 -7,3.1346 -7,7 0,3.8654 3.1332,7 7,7 3.8668,0 7,-3.1346 7,-7 0,-3.8654 -3.1332,-7 -7,-7 z"
         id="path6" />
      <path
         d="m 32,33.000002 c -13.9986,0.0084 -14,8.861538 -14,8.861538 v 3.6 c 0,0 2.584598,5.53846 14,5.53846 11.415402,0 14,-5.53846 14,-5.53846 v -3.6 c 0,0 0,-8.867076 -13.9972,-8.861538 z"
         id="path8" />
    </g>
    <g
       id="g16">
      <path
         style="fill:#ffffff"
         d="m 32,14 c -3.8668,0 -7,3.1346 -7,7 0,3.8654 3.1332,7 7,7 3.8668,0 7,-3.1346 7,-7 0,-3.8654 -3.1332,-7 -7,-7 z"
         id="path12" />
      <path
         style="fill:#ffffff"
         d="m 32,33.000002 c -13.9986,0.0084 -14,8.861538 -14,8.861538 v 3.6 c 0,0 2.584598,5.53846 14,5.53846 11.415402,0 14,-5.53846 14,-5.53846 v -3.6 c 0,0 0,-8.867076 -13.9972,-8.861538 z"
         id="path14" />
    </g>
    <path
       style="opacity:0.2;fill:#ffffff"
       d="M 32,4 A 28,28 0 0 0 4,32 28,28 0 0 0 4.0175781,32.492188 28,28 0 0 1 32,5 28,28 0 0 1 59.974609,32.492188 28,28 0 0 0 60,32 28,28 0 0 0 32,4 Z"
       id="path18" />
  </g>
</svg>
