<?xml version="1.0" encoding="UTF-8" standalone="no"?>
<svg
   xmlns:dc="http://purl.org/dc/elements/1.1/"
   xmlns:cc="http://creativecommons.org/ns#"
   xmlns:rdf="http://www.w3.org/1999/02/22-rdf-syntax-ns#"
   xmlns:svg="http://www.w3.org/2000/svg"
   xmlns="http://www.w3.org/2000/svg"
   xmlns:sodipodi="http://sodipodi.sourceforge.net/DTD/sodipodi-0.dtd"
   xmlns:inkscape="http://www.inkscape.org/namespaces/inkscape"
   inkscape:version="1.0.1 (unknown)"
   sodipodi:docname="ayguci_alt.svg"
   id="svg12"
   version="1"
   height="512"
   width="512">
  <metadata
     id="metadata18">
    <rdf:RDF>
      <cc:Work
         rdf:about="">
        <dc:format>image/svg+xml</dc:format>
        <dc:type
           rdf:resource="http://purl.org/dc/dcmitype/StillImage" />
        <dc:title></dc:title>
      </cc:Work>
    </rdf:RDF>
  </metadata>
  <defs
     id="defs16">
    <rect
       id="rect22"
       height="66.772911"
       width="60.393829"
       y="14.350573"
       x="-35.65414" />
    <rect
       x="-35.65414"
       y="14.350573"
       width="60.393829"
       height="66.772911"
       id="rect30" />
  </defs>
  <sodipodi:namedview
     inkscape:current-layer="svg12"
     inkscape:window-maximized="1"
     inkscape:window-y="0"
     inkscape:window-x="0"
     inkscape:cy="74.200283"
     inkscape:cx="1213.8158"
     inkscape:zoom="0.42049253"
     showgrid="false"
     id="namedview14"
     inkscape:window-height="1025"
     inkscape:window-width="1920"
     inkscape:pageshadow="2"
     inkscape:pageopacity="0"
     guidetolerance="10"
     gridtolerance="10"
     objecttolerance="10"
     borderopacity="1"
     bordercolor="#666666"
     pagecolor="#ffffff"
     inkscape:document-rotation="0" />
  <path
     style="opacity:0.2;stroke-width:8.42105"
     d="m 244.6628,24.421053 c -26.12547,0 -47.1546,21.029131 -47.1546,47.154602 V 93.680918 A 176.8421,176.8421 0 0 0 141.73517,125.90131 L 122.57398,114.84868 C 99.948662,101.78595 71.212384,109.49309 58.149646,132.11842 l -11.792764,20.39474 c -13.062736,22.62533 -5.355585,51.3616 17.269738,64.42434 l 19.078951,11.01974 a 176.8421,176.8421 0 0 0 -3.092109,32.25329 176.8421,176.8421 0 0 0 3.092109,32.25328 L 63.62662,303.48355 c -22.625323,13.06274 -30.332474,41.79902 -17.269738,64.42434 l 11.792764,20.39474 c 13.062738,22.62533 41.799016,30.33248 64.424334,17.26974 l 19.02961,-10.98685 a 176.8421,176.8421 0 0 0 55.90461,32.10527 v 22.15461 c 0,26.12547 21.02913,47.1546 47.1546,47.1546 h 23.58553 c 26.12548,0 47.1546,-21.02913 47.1546,-47.1546 v -22.23685 a 176.8421,176.8421 0 0 0 55.77303,-32.08881 l 19.16119,11.05263 c 22.62532,13.06274 51.3616,5.3556 64.42434,-17.26974 l 11.79276,-20.39474 c 13.06274,-22.62532 5.35558,-51.3616 -17.26973,-64.42434 l -19.07896,-11.01974 a 176.8421,176.8421 0 0 0 3.09211,-32.25328 176.8421,176.8421 0 0 0 -3.09211,-32.25329 l 19.07896,-11.01974 c 22.62532,-13.06274 30.33247,-41.79901 17.26973,-64.42434 l -11.79276,-20.39474 c -13.06274,-22.62533 -41.79902,-30.33247 -64.42434,-17.26974 l -19.02961,10.98685 A 176.8421,176.8421 0 0 0 315.40293,93.713819 V 71.575655 c 0,-26.125471 -21.02912,-47.154602 -47.1546,-47.154602 z"
     id="path2" />
  <path
     style="fill:#18b4d9;stroke-width:8.42105"
     d="m 244.6628,16 c -26.12547,0 -47.1546,21.029132 -47.1546,47.154606 V 85.259865 A 176.8421,176.8421 0 0 0 141.73517,117.48026 L 122.57398,106.42763 C 99.948662,93.364893 71.212384,101.07204 58.149646,123.69736 l -11.792764,20.39475 c -13.062736,22.62533 -5.355585,51.3616 17.269738,64.42434 l 19.078951,11.01973 a 176.8421,176.8421 0 0 0 -3.092109,32.25329 176.8421,176.8421 0 0 0 3.092109,32.25329 L 63.62662,295.0625 c -22.625323,13.06274 -30.332474,41.79901 -17.269738,64.42434 l 11.792764,20.39474 c 13.062738,22.62532 41.799016,30.33247 64.424334,17.26974 l 19.02961,-10.98685 a 176.8421,176.8421 0 0 0 55.90461,32.10526 v 22.15461 c 0,26.12548 21.02913,47.15461 47.1546,47.15461 h 23.58553 c 26.12548,0 47.1546,-21.02913 47.1546,-47.15461 V 418.1875 a 176.8421,176.8421 0 0 0 55.77303,-32.08881 l 19.16119,11.05263 c 22.62532,13.06273 51.3616,5.35558 64.42434,-17.26974 l 11.79276,-20.39474 c 13.06274,-22.62533 5.35558,-51.3616 -17.26973,-64.42434 l -19.07896,-11.01974 a 176.8421,176.8421 0 0 0 3.09211,-32.25329 176.8421,176.8421 0 0 0 -3.09211,-32.25329 l 19.07896,-11.01973 c 22.62532,-13.06274 30.33247,-41.79901 17.26973,-64.42434 L 454.76149,123.69736 C 441.69875,101.07203 412.96246,93.364893 390.33715,106.42763 l -19.02961,10.98685 A 176.8421,176.8421 0 0 0 315.40293,85.292766 V 63.154606 C 315.40293,37.029132 294.37381,16 268.24833,16 Z"
     id="path4" />
  <path
     style="opacity:0.2;fill:#ffffff;stroke-width:8.42105"
     d="m 244.6628,16 c -26.12547,0 -47.1546,21.029132 -47.1546,47.154606 v 8.421049 c 0,-26.12547 21.02913,-47.154602 47.1546,-47.154602 h 23.58553 c 26.12548,0 47.1546,21.029132 47.1546,47.154602 V 63.154606 C 315.40293,37.029132 294.37381,16 268.24833,16 Z M 197.5082,85.259865 A 176.8421,176.8421 0 0 0 141.73517,117.48026 L 122.57398,106.42763 C 99.948662,93.364893 71.212384,101.07204 58.149646,123.69736 l -11.792764,20.39475 c -5.080897,8.80037 -6.977758,18.52663 -6.11842,27.89474 0.587251,-6.65067 2.549115,-13.29147 6.11842,-19.47369 l 11.792764,-20.39474 c 13.062738,-22.62533 41.799016,-30.33247 64.424334,-17.26974 l 19.16119,11.05263 A 176.8421,176.8421 0 0 1 197.5082,93.680918 Z m 117.89473,0.03284 v 8.421052 a 176.8421,176.8421 0 0 1 55.90461,32.121713 l 19.02961,-10.98685 c 22.62532,-13.06273 51.3616,-5.35559 64.42434,17.26974 l 11.79276,20.39474 c 3.56931,6.18222 5.53118,12.82302 6.11842,19.47369 0.85933,-9.36811 -1.03753,-19.09437 -6.11842,-27.89474 L 454.76149,123.69731 C 441.69875,101.07197 412.96247,93.364834 390.33715,106.42757 l -19.02961,10.98685 A 176.8421,176.8421 0 0 0 315.40293,85.292766 Z m 115.9375,142.006575 -1.13487,0.65794 a 176.8421,176.8421 0 0 1 2.87829,28.38818 176.8421,176.8421 0 0 0 0.21382,-4.55593 176.8421,176.8421 0 0 0 -1.95724,-24.49013 z m -349.720392,0.0328 a 176.8421,176.8421 0 0 0 -2.006576,24.45734 176.8421,176.8421 0 0 0 0.21381,3.86513 176.8421,176.8421 0 0 1 2.878291,-27.69736 z M 431.29109,284.6676 a 176.8421,176.8421 0 0 1 -1.08553,7.79605 l 19.07896,11.01974 c 13.82494,7.98184 22.03818,21.81278 23.38815,36.5296 1.56193,-17.68904 -6.94505,-35.45722 -23.38815,-44.95065 z M 81.570699,284.7005 63.62662,295.06234 c -16.443105,9.49343 -24.950083,27.26161 -23.388158,44.95065 1.349977,-14.71682 9.563208,-28.54776 23.388158,-36.5296 l 19.078951,-11.01974 a 176.8421,176.8421 0 0 1 -1.134872,-7.76315 z"
     id="path6" />
  <path
     style="fill:#000000;fill-opacity:0.2;stroke-width:2.06639"
     d="m 304.0227,398.21728 c 1.52344,-21.85234 1.0316,-27.7572 -2.69308,-32.32591 -4.30902,-5.28624 -15.21477,-6.99809 -20.74168,-3.25536 -3.10628,2.1035 -3.40652,3.85896 -1.6607,9.7231 2.02475,6.80378 1.90435,7.06422 -2.44487,5.28893 -9.01985,-3.68199 -11.66211,-11.26231 -8.08036,-23.18035 l 2.20197,-7.32639 8.95032,2.48156 c 8.37934,2.32321 9.58087,2.18107 18.82839,-2.23023 9.81554,-4.68237 9.89991,-4.68595 13.48738,-0.55366 5.36071,6.17587 16.27056,8.63346 31.35017,7.06194 15.41137,-1.60601 16.17055,-0.60621 10.6542,14.03489 -7.23749,19.2097 -20.31865,31.04109 -39.47511,35.70488 l -10.94053,2.66334 z m 22.01379,-67.78254 c -2.67996,-2.39774 -7.88428,-8.25299 -11.56549,-13.01126 -8.66436,-11.1999 -12.07083,-13.13897 -21.49899,-12.23661 -8.37074,0.79953 -10.44914,4.30449 -11.36844,19.16162 l -0.41236,6.65913 -8.82577,-4.6031 -8.82488,-4.60302 -6.02044,8.63277 -6.02048,8.63281 -12.37311,-9.14724 c -19.39561,-14.33991 -37.00243,-16.6009 -60.15631,-7.72524 -16.63009,6.37512 -19.38869,6.22927 -21.67952,-1.14576 l -1.96289,-6.3169 -10.64811,2.43295 c -5.8559,1.33836 -18.45988,3.72194 -28.00844,5.2975 l -17.361117,2.86455 15.595607,-9.83531 c 8.57798,-5.40952 22.2714,-13.06217 30.43037,-17.00605 8.15911,-3.94375 15.16646,-7.50674 15.5723,-7.91794 2.21798,-2.24768 -7.12412,-6.88284 -25.6176,-12.70934 -11.45984,-3.61046 -22.32334,-7.70152 -24.14126,-9.0912 -2.83675,-2.16846 -1.71342,-2.69518 7.92357,-3.7155 21.29626,-2.25587 86.36645,-27.3369 96.54654,-37.21469 8.81553,-8.55444 6.01471,-13.67438 -11.86479,-21.68541 -20.9089,-9.36849 -75.28598,-37.94315 -85.1703,-44.7565 l -7.83466,-5.40014 11.43191,-1.27346 c 24.03067,-2.68121 56.58896,2.50752 97.54425,15.54665 49.14451,15.64644 78.11813,30.55514 109.11207,56.14459 18.34763,15.14858 19.22233,15.60944 20.03322,10.55763 0.77687,-4.83781 1.4305,-4.31975 7.76918,6.15745 5.22881,8.64184 7.99152,16.73803 11.29676,33.10279 5.09048,25.19994 4.22882,35.78121 -3.82,46.92862 -4.66332,6.45825 -6.45908,7.33639 -19.17698,9.38161 -12.64661,2.03313 -14.51325,1.82625 -18.90417,-2.10372 z m -32.31298,-3.57784 c -1.0894,-10.4551 2.04434,-12.45276 9.74106,-6.20902 4.61739,3.74632 6.72438,8.87157 2.88469,7.01782 -1.15939,-0.55999 -3.79551,1.06249 -5.85753,3.60404 -2.06193,2.54192 -4.21156,4.66993 -4.77666,4.72881 -0.56516,0.0544 -1.46122,-4.0547 -1.99156,-9.14165 z"
     id="path862"
     inkscape:connector-curvature="0"
     sodipodi:nodetypes="scscsscsscssscscscsccccccscccscsssssccssccsssccscccccsscc" />
  <path
     style="fill:#ffffff;fill-opacity:1;stroke-width:2.06639"
     d="m 304.0227,384.21728 c 1.52344,-21.85234 1.0316,-27.7572 -2.69308,-32.32591 -4.30902,-5.28624 -15.21477,-6.99809 -20.74168,-3.25536 -3.10628,2.1035 -3.40652,3.85896 -1.6607,9.7231 2.02475,6.80378 1.90435,7.06422 -2.44487,5.28893 -9.01985,-3.68199 -11.66211,-11.26231 -8.08036,-23.18035 l 2.20197,-7.32639 8.95032,2.48156 c 8.37934,2.32321 9.58087,2.18107 18.82839,-2.23023 9.81554,-4.68237 9.89991,-4.68595 13.48738,-0.55366 5.36071,6.17587 16.27056,8.63346 31.35017,7.06194 15.41137,-1.60601 16.17055,-0.60621 10.6542,14.03489 -7.23749,19.2097 -20.31865,31.04109 -39.47511,35.70488 l -10.94053,2.66334 z m 22.01379,-67.78254 c -2.67996,-2.39774 -7.88428,-8.25299 -11.56549,-13.01126 -8.66436,-11.1999 -12.07083,-13.13897 -21.49899,-12.23661 -8.37074,0.79953 -10.44914,4.30449 -11.36844,19.16162 l -0.41236,6.65913 -8.82577,-4.6031 -8.82488,-4.60302 -6.02044,8.63277 -6.02048,8.63281 -12.37311,-9.14724 c -19.39561,-14.33991 -37.00243,-16.6009 -60.15631,-7.72524 -16.63009,6.37512 -19.38869,6.22927 -21.67952,-1.14576 l -1.96289,-6.3169 -10.64811,2.43295 c -5.8559,1.33836 -18.45988,3.72194 -28.00844,5.2975 l -17.361117,2.86455 15.595607,-9.83531 c 8.57798,-5.40952 22.2714,-13.06217 30.43037,-17.00605 8.15911,-3.94375 15.16646,-7.50674 15.5723,-7.91794 2.21798,-2.24768 -7.12412,-6.88284 -25.6176,-12.70934 -11.45984,-3.61046 -22.32334,-7.70152 -24.14126,-9.0912 -2.83675,-2.16846 -1.71342,-2.69518 7.92357,-3.7155 21.29626,-2.25587 86.36645,-27.3369 96.54654,-37.21469 8.81553,-8.55444 6.01471,-13.67438 -11.86479,-21.68541 -20.9089,-9.36849 -75.28598,-37.94315 -85.1703,-44.7565 l -7.83466,-5.40014 11.43191,-1.27346 c 24.03067,-2.68121 56.58896,2.50752 97.54425,15.54665 49.14451,15.64644 78.11813,30.55514 109.11207,56.14459 18.34763,15.14858 19.22233,15.60944 20.03322,10.55763 0.77687,-4.83781 1.4305,-4.31975 7.76918,6.15745 5.22881,8.64184 7.99152,16.73803 11.29676,33.10279 5.09048,25.19994 4.22882,35.78121 -3.82,46.92862 -4.66332,6.45825 -6.45908,7.33639 -19.17698,9.38161 -12.64661,2.03313 -14.51325,1.82625 -18.90417,-2.10372 z m -32.31298,-3.57784 c -1.0894,-10.4551 2.04434,-12.45276 9.74106,-6.20902 4.61739,3.74632 6.72438,8.87157 2.88469,7.01782 -1.15939,-0.55999 -3.79551,1.06249 -5.85753,3.60404 -2.06193,2.54192 -4.21156,4.66993 -4.77666,4.72881 -0.56516,0.0544 -1.46122,-4.0547 -1.99156,-9.14165 z"
     id="path4487"
     inkscape:connector-curvature="0"
     sodipodi:nodetypes="scscsscsscssscscscsccccccscccscsssssccssccsssccscccccsscc" />
</svg>
