<?xml version="1.0" encoding="UTF-8" standalone="no"?>
<svg
   xmlns:dc="http://purl.org/dc/elements/1.1/"
   xmlns:cc="http://creativecommons.org/ns#"
   xmlns:rdf="http://www.w3.org/1999/02/22-rdf-syntax-ns#"
   xmlns:svg="http://www.w3.org/2000/svg"
   xmlns="http://www.w3.org/2000/svg"
   xmlns:sodipodi="http://sodipodi.sourceforge.net/DTD/sodipodi-0.dtd"
   xmlns:inkscape="http://www.inkscape.org/namespaces/inkscape"
   inkscape:version="1.0 (unknown)"
   sodipodi:docname="host.svg"
   id="svg24"
   version="1"
   height="512"
   width="512">
  <metadata
     id="metadata30">
    <rdf:RDF>
      <cc:Work
         rdf:about="">
        <dc:format>image/svg+xml</dc:format>
        <dc:type
           rdf:resource="http://purl.org/dc/dcmitype/StillImage" />
        <dc:title></dc:title>
      </cc:Work>
    </rdf:RDF>
  </metadata>
  <defs
     id="defs28" />
  <sodipodi:namedview
     inkscape:current-layer="svg24"
     inkscape:window-maximized="1"
     inkscape:window-y="27"
     inkscape:window-x="0"
     inkscape:cy="275.63377"
     inkscape:cx="47.821779"
     inkscape:zoom="0.93129124"
     showgrid="false"
     id="namedview26"
     inkscape:window-height="1025"
     inkscape:window-width="1920"
     inkscape:pageshadow="2"
     inkscape:pageopacity="0"
     guidetolerance="10"
     gridtolerance="10"
     objecttolerance="10"
     borderopacity="1"
     bordercolor="#666666"
     pagecolor="#ffffff" />
  <g
     transform="matrix(8.5714286,0,0,8.5714286,-18.285714,-22.571429)"
     id="g61">
    <path
       style="opacity:0.2"
       d="M 20,57 16,53 H 8 C 5.784,53 4,51.216 4,49 V 13 C 4,10.784 5.784,9 8,9 h 48 c 2.216,0 4,1.784 4,4 v 36 c 0,2.216 -1.784,4 -4,4 h -8 l -4,4 z"
       id="path2" />
    <path
       style="fill:#afafb1"
       d="M 20,56 16,52 H 8 C 5.784,52 4,50.216 4,48 V 12 C 4,9.784 5.784,8 8,8 h 48 c 2.216,0 4,1.784 4,4 v 36 c 0,2.216 -1.784,4 -4,4 h -8 l -4,4 z"
       id="path4" />
    <path
       style="opacity:0.6"
       d="M 24,48 20,44 H 12 V 16 h 40 v 28 h -8 l -4,4 z"
       id="path6" />
    <g
       style="fill:#f8c44e"
       transform="scale(1,-1)"
       id="g18">
      <rect
         width="4"
         height="4"
         x="18"
         y="-20"
         id="rect8" />
      <rect
         width="4"
         height="4"
         x="24"
         y="-20"
         id="rect10" />
      <rect
         width="4"
         height="4"
         x="30"
         y="-20"
         id="rect12" />
      <rect
         width="4"
         height="4"
         x="36"
         y="-20"
         id="rect14" />
      <rect
         width="4"
         height="4"
         x="42"
         y="-20"
         id="rect16" />
    </g>
    <path
       style="opacity:0.2;fill:#ffffff"
       d="M 8,8 C 5.784,8 4,9.784 4,12 v 1 C 4,10.784 5.784,9 8,9 h 48 c 2.216,0 4,1.784 4,4 V 12 C 60,9.784 58.216,8 56,8 Z"
       id="path20" />
    <path
       style="opacity:0.2;fill:#ffffff"
       d="m 12,44 v 1 h 8 l 4,4 h 16 l 4,-4 h 8 v -1 h -8 l -4,4 H 24 l -4,-4 z"
       id="path22" />
  </g>
</svg>
