<?xml version="1.0" encoding="UTF-8" standalone="no"?>
<svg
   xmlns:dc="http://purl.org/dc/elements/1.1/"
   xmlns:cc="http://creativecommons.org/ns#"
   xmlns:rdf="http://www.w3.org/1999/02/22-rdf-syntax-ns#"
   xmlns:svg="http://www.w3.org/2000/svg"
   xmlns="http://www.w3.org/2000/svg"
   xmlns:sodipodi="http://sodipodi.sourceforge.net/DTD/sodipodi-0.dtd"
   xmlns:inkscape="http://www.inkscape.org/namespaces/inkscape"
   inkscape:version="1.0 (unknown)"
   sodipodi:docname="install.svg"
   id="svg10"
   version="1"
   height="512"
   width="512">
  <metadata
     id="metadata16">
    <rdf:RDF>
      <cc:Work
         rdf:about="">
        <dc:format>image/svg+xml</dc:format>
        <dc:type
           rdf:resource="http://purl.org/dc/dcmitype/StillImage" />
        <dc:title></dc:title>
      </cc:Work>
    </rdf:RDF>
  </metadata>
  <defs
     id="defs14" />
  <sodipodi:namedview
     inkscape:current-layer="svg10"
     inkscape:window-maximized="1"
     inkscape:window-y="27"
     inkscape:window-x="0"
     inkscape:cy="169.81719"
     inkscape:cx="-36.373059"
     inkscape:zoom="0.84004929"
     showgrid="false"
     id="namedview12"
     inkscape:window-height="1025"
     inkscape:window-width="1920"
     inkscape:pageshadow="2"
     inkscape:pageopacity="0"
     guidetolerance="10"
     gridtolerance="10"
     objecttolerance="10"
     borderopacity="1"
     bordercolor="#666666"
     pagecolor="#ffffff" />
  <path
     id="path2"
     d="m 20,453.89474 v 16.8421 C 20,484.73263 31.267368,496 45.263158,496 H 466.31579 c 13.99579,0 25.26316,-11.26737 25.26316,-25.26316 v -16.8421 c 0,13.99579 -11.26737,25.26315 -25.26316,25.26315 H 45.263158 C 31.267368,479.15789 20,467.89053 20,453.89474 Z"
     style="opacity:0.2;stroke-width:8.42105" />
  <rect
     id="rect4"
     ry="25.263159"
     rx="25.263159"
     y="16"
     x="20"
     height="471.57895"
     width="471.57895"
     style="fill:#fabd7f;stroke-width:8.42105" />
  <path
     id="path6"
     d="M 45.263158,16 C 31.267368,16 20,27.267368 20,41.263158 v 8.421053 C 20,35.688421 31.267368,24.421053 45.263158,24.421053 H 466.31579 c 13.99579,0 25.26316,11.267368 25.26316,25.263158 V 41.263158 C 491.57895,27.267368 480.31158,16 466.31579,16 Z"
     style="opacity:0.1;fill:#ffffff;stroke-width:8.42105" />
  <path
     id="path8"
     d="m 231.73895,83.368421 c -6.66476,0 -9.54987,5.783731 -9.63369,12.960505 V 302.31411 h -50.53035 l 84.21052,117.89642 84.21053,-117.89306 H 289.47368 V 96.332295 c 0,-7.168 -2.99183,-12.951579 -9.64446,-12.951579 z"
     style="fill:#3f3f3f;stroke-width:8.42105" />
</svg>
