<?xml version="1.0" encoding="UTF-8" standalone="no"?>
<svg
   xmlns:dc="http://purl.org/dc/elements/1.1/"
   xmlns:cc="http://creativecommons.org/ns#"
   xmlns:rdf="http://www.w3.org/1999/02/22-rdf-syntax-ns#"
   xmlns:svg="http://www.w3.org/2000/svg"
   xmlns="http://www.w3.org/2000/svg"
   xmlns:sodipodi="http://sodipodi.sourceforge.net/DTD/sodipodi-0.dtd"
   xmlns:inkscape="http://www.inkscape.org/namespaces/inkscape"
   inkscape:version="1.0 (unknown)"
   sodipodi:docname="keyboard.svg"
   id="svg48"
   version="1"
   height="512"
   width="512">
  <metadata
     id="metadata54">
    <rdf:RDF>
      <cc:Work
         rdf:about="">
        <dc:format>image/svg+xml</dc:format>
        <dc:type
           rdf:resource="http://purl.org/dc/dcmitype/StillImage" />
        <dc:title></dc:title>
      </cc:Work>
    </rdf:RDF>
  </metadata>
  <defs
     id="defs52" />
  <sodipodi:namedview
     inkscape:current-layer="svg48"
     inkscape:window-maximized="1"
     inkscape:window-y="27"
     inkscape:window-x="0"
     inkscape:cy="162.53446"
     inkscape:cx="180.00097"
     inkscape:zoom="0.95734707"
     showgrid="false"
     id="namedview50"
     inkscape:window-height="1025"
     inkscape:window-width="1920"
     inkscape:pageshadow="2"
     inkscape:pageopacity="0"
     guidetolerance="10"
     gridtolerance="10"
     objecttolerance="10"
     borderopacity="1"
     bordercolor="#666666"
     pagecolor="#ffffff" />
  <g
     transform="matrix(8.571398,0,0,8.571398,-18.283878,-21.856776)"
     id="g79">
    <rect
       style="fill:#4f4f4f"
       width="56"
       height="40"
       x="4"
       y="12"
       rx="2.8"
       ry="2.8"
       id="rect2" />
    <circle
       style="opacity:0.2"
       cx="11"
       cy="22"
       r="3"
       id="circle4" />
    <circle
       style="opacity:0.2"
       cx="21"
       cy="22"
       r="3"
       id="circle6" />
    <circle
       style="opacity:0.2"
       cx="31"
       cy="22"
       r="3"
       id="circle8" />
    <circle
       style="opacity:0.2"
       cx="41"
       cy="22"
       r="3"
       id="circle10" />
    <circle
       style="opacity:0.2"
       cx="51"
       cy="22"
       r="3"
       id="circle12" />
    <circle
       style="opacity:0.2"
       cx="17"
       cy="34"
       r="3"
       id="circle14" />
    <circle
       style="opacity:0.2"
       cx="27"
       cy="34"
       r="3"
       id="circle16" />
    <circle
       style="opacity:0.2"
       cx="37"
       cy="34"
       r="3"
       id="circle18" />
    <circle
       style="opacity:0.2"
       cx="47"
       cy="34"
       r="3"
       id="circle20" />
    <rect
       style="opacity:0.2"
       width="40"
       height="6"
       x="12"
       y="43"
       rx="1.5"
       ry="1.5"
       id="rect22" />
    <circle
       style="fill:#e4e4e4"
       cx="11"
       cy="21"
       r="3"
       id="circle24" />
    <circle
       style="fill:#e4e4e4"
       cx="21"
       cy="21"
       r="3"
       id="circle26" />
    <circle
       style="fill:#e4e4e4"
       cx="31"
       cy="21"
       r="3"
       id="circle28" />
    <circle
       style="fill:#e4e4e4"
       cx="41"
       cy="21"
       r="3"
       id="circle30" />
    <circle
       style="fill:#e4e4e4"
       cx="51"
       cy="21"
       r="3"
       id="circle32" />
    <circle
       style="fill:#e4e4e4"
       cx="17"
       cy="33"
       r="3"
       id="circle34" />
    <circle
       style="fill:#e4e4e4"
       cx="27"
       cy="33"
       r="3"
       id="circle36" />
    <circle
       style="fill:#e4e4e4"
       cx="37"
       cy="33"
       r="3"
       id="circle38" />
    <circle
       style="fill:#e4e4e4"
       cx="47"
       cy="33"
       r="3"
       id="circle40" />
    <rect
       style="fill:#e4e4e4"
       width="40"
       height="6"
       x="12"
       y="42"
       rx="1.5"
       ry="1.5"
       id="rect42" />
    <path
       style="opacity:0.1;fill:#ffffff"
       d="M 6.8008,12 C 5.2496,12 4,13.25 4,14.801 v 1 C 4,14.25 5.2496,13 6.8008,13 h 50.398 c 1.551,0 2.801,1.25 2.801,2.801 v -1 c 0,-1.551 -1.25,-2.801 -2.801,-2.801 z"
       id="path44" />
    <path
       style="opacity:0.2"
       d="m 4,49.199 v 1 C 4,51.75 5.2496,53 6.8008,53 h 50.398 c 1.551,0 2.801,-1.25 2.801,-2.801 v -1 c 0,1.551 -1.25,2.801 -2.801,2.801 H 6.8008 c -1.5514,0 -2.801,-1.25 -2.801,-2.801 z"
       id="path46" />
  </g>
</svg>
