<?xml version="1.0" encoding="UTF-8" standalone="no"?>
<svg
   xmlns:dc="http://purl.org/dc/elements/1.1/"
   xmlns:cc="http://creativecommons.org/ns#"
   xmlns:rdf="http://www.w3.org/1999/02/22-rdf-syntax-ns#"
   xmlns:svg="http://www.w3.org/2000/svg"
   xmlns="http://www.w3.org/2000/svg"
   xmlns:sodipodi="http://sodipodi.sourceforge.net/DTD/sodipodi-0.dtd"
   xmlns:inkscape="http://www.inkscape.org/namespaces/inkscape"
   inkscape:version="1.0 (unknown)"
   sodipodi:docname="locale.svg"
   id="svg22"
   version="1"
   height="512"
   width="512">
  <metadata
     id="metadata28">
    <rdf:RDF>
      <cc:Work
         rdf:about="">
        <dc:format>image/svg+xml</dc:format>
        <dc:type
           rdf:resource="http://purl.org/dc/dcmitype/StillImage" />
        <dc:title></dc:title>
      </cc:Work>
    </rdf:RDF>
  </metadata>
  <defs
     id="defs26" />
  <sodipodi:namedview
     inkscape:current-layer="svg22"
     inkscape:window-maximized="1"
     inkscape:window-y="27"
     inkscape:window-x="0"
     inkscape:cy="255.87777"
     inkscape:cx="88.034685"
     inkscape:zoom="1.0076373"
     showgrid="false"
     id="namedview24"
     inkscape:window-height="1025"
     inkscape:window-width="1920"
     inkscape:pageshadow="2"
     inkscape:pageopacity="0"
     guidetolerance="10"
     gridtolerance="10"
     objecttolerance="10"
     borderopacity="1"
     bordercolor="#666666"
     pagecolor="#ffffff" />
  <path
     id="path2"
     d="m 340.88211,167.57895 0.11789,320 H 46.381053 C 21.121263,487.57895 21,466.42526 21,466.42526 V 192.84211 c 0,0 0,-25.26316 25.263158,-25.26316 z"
     style="fill:#e4e4e4;stroke-width:8.42105" />
  <path
     id="path4"
     d="M 46.149474,167.57895 C 21,167.57895 21,192.84211 21,192.84211 l 0.04884,7.92421 C 21.073263,199.28421 21.785684,176 46.149474,176 H 341 v -8.42105 z"
     style="opacity:0.1;fill:#ffffff;stroke-width:8.42105" />
  <path
     id="path6"
     d="m 148.52,241.37263 c 6.95579,4.81684 13.36421,10.69474 19.25053,17.64211 l -10.42527,12.81684 C 150.92,263.81474 144.23368,257.12842 137.28632,251.78947 l 11.22526,-10.41684 m 0,50.5179 c 6.41684,4.81684 12.56421,10.16421 18.45053,16.0421 l -10.42527,13.63369 c -5.88631,-7.49474 -12.30316,-13.91158 -19.25052,-19.25053 l 11.22526,-10.42526 m 3.20842,55.33473 12.83368,8.82527 c -6.41684,21.91158 -15.77263,43.03158 -28.06736,63.34315 l -13.63369,-10.42526 c 12.29474,-19.78105 21.92,-40.37053 28.86737,-61.75158 m 37.69263,-112.26947 15.23369,3.20842 c -1.06948,5.34737 -2.66948,10.42526 -4.80843,15.23368 h 62.56 v 14.44211 h -68.97684 l -7.21684,12.02526 c -2.13895,4.2779 -5.61684,8.82527 -10.42526,13.63369 l -9.62527,-11.22527 c 10.15579,-12.29473 17.91158,-28.06737 23.25895,-47.31789 m -4.00842,49.72631 h 73.78526 c 0,16.57264 -0.26947,32.07579 -0.8,46.50948 h 10.42527 v 14.43368 h -11.23369 c -1.06947,11.23369 -1.86947,22.18948 -2.4,32.88421 h 12.02527 v 13.63369 h -13.63369 c -2.13895,18.71158 -9.63368,28.07579 -22.46737,28.07579 -3.20842,0 -7.75579,-0.53895 -13.63368,-1.6 l -2.40842,-13.63369 c 6.95579,1.06105 12.30316,1.6 16.0421,1.6 3.74737,0 6.14737,-4.80842 7.21685,-14.43368 h -62.55158 c 2.13894,-14.43369 4.00842,-29.94527 5.60842,-46.5179 h -11.22527 v -14.43368 h 12.83369 c 1.06947,-14.97263 1.86947,-30.47579 2.40842,-46.5179 m 12.02526,46.5179 h 45.7179 c 0.53052,-11.22526 0.8,-22.18947 0.8,-32.88421 h -44.10948 c -0.53894,11.76421 -1.33894,22.72842 -2.40842,32.88421 m 20.07579,-28.86737 c 5.88632,3.74737 11.23369,8.01684 16.04211,12.83368 l -9.62527,12.02527 C 219.10526,321.83579 213.75789,317.02737 207.88,312.74947 l 9.60842,-10.42526 m 22.45895,76.18526 c 1.06947,-11.22526 1.86947,-22.18105 2.40842,-32.87579 h -45.7179 c -1.06947,11.76421 -2.40842,22.72 -4.00842,32.87579 h 47.3179 m -24.85895,-28.86736 c 6.41684,3.73894 12.29474,8.01684 17.64211,12.83368 l -10.42527,12.02526 c -5.34737,-5.87789 -10.96421,-10.95579 -16.8421,-15.23368 l 9.62526,-9.62526 m -84.21053,-95.43579 v 125.91157 h -14.4421 V 366.48421 H 102.8021 v 20.85053 H 88.368421 V 254.20632 h 42.509469 m -28.07579,98.64421 h 13.63369 V 267.84 H 102.8021 v 85.01053"
     style="opacity:0.2;stroke-width:8.42105" />
  <path
     id="path8"
     d="m 21,466.42526 v 8.42106 C 21,474.84632 21.129684,496 46.394526,496 H 341 v -8.42105 H 46.394526 C 21.129684,487.57895 21,466.42526 21,466.42526 Z"
     style="opacity:0.2;stroke-width:8.42105" />
  <path
     id="path10"
     d="M 340.93263,167.57895 172.51158,16 v 320 l 168.42105,151.57895 z"
     style="fill:#a3a3a3;stroke-width:8.42105" />
  <path
     id="path12"
     d="M 172.57895,16.008421 V 336 h 294.62737 c 25.25473,0 25.37263,-21.16211 25.37263,-21.16211 l -0.1179,-273.575574 c 0,0 0,-25.262316 -25.25473,-25.262316 z"
     style="fill:#2095f2;stroke-width:8.42105" />
  <path
     id="path14"
     d="m 310.86105,201.26316 c 7.16632,-25.79369 13.66737,-52.5979 19.04,-75.78948 h 1.13684 c 6.6779,27.62106 12.71579,49.37264 19.32632,75.78948 h -39.50316 m 59.40211,75.78947 h 44.32842 L 356.62947,91.789474 H 306.33053 L 248.36842,277.05263 h 42.61895 l 11.36842,-42.10526 h 56.54737 l 11.36842,42.10526"
     style="opacity:0.2;stroke-width:8.42105" />
  <path
     id="path16"
     d="m 310.86105,192.84211 c 7.16632,-25.79369 13.66737,-52.5979 19.04,-75.78948 h 1.13684 c 6.6779,27.62105 12.71579,49.37263 19.32632,75.78948 h -39.50316 m 59.40211,75.78947 h 44.32842 L 356.62947,83.368421 H 306.33053 L 248.36842,268.63158 h 42.61895 l 11.36842,-42.10526 h 56.54737 l 11.36842,42.10526"
     style="fill:#ffffff;stroke-width:8.42105" />
  <path
     id="path18"
     d="m 172.57895,16 v 8.421053 h 294.73684 c 25.26316,0 25.26316,25.263158 25.26316,25.263158 v -8.421053 c 0,0 0,-25.263158 -25.26316,-25.263158 z"
     style="opacity:0.1;fill:#ffffff;stroke-width:8.42105" />
  <path
     id="path20"
     d="m 492.57895,314.91368 c 0,0.20211 -0.26106,21.08632 -25.3979,21.08632 h -294.6021 v 8.42105 h 294.6021 c 25.13684,0 25.3979,-20.88421 25.3979,-21.08631 z"
     style="opacity:0.2;stroke-width:8.42105" />
</svg>
