<?xml version="1.0" encoding="UTF-8" standalone="no"?>
<svg
   xmlns:dc="http://purl.org/dc/elements/1.1/"
   xmlns:cc="http://creativecommons.org/ns#"
   xmlns:rdf="http://www.w3.org/1999/02/22-rdf-syntax-ns#"
   xmlns:svg="http://www.w3.org/2000/svg"
   xmlns="http://www.w3.org/2000/svg"
   xmlns:sodipodi="http://sodipodi.sourceforge.net/DTD/sodipodi-0.dtd"
   xmlns:inkscape="http://www.inkscape.org/namespaces/inkscape"
   inkscape:version="1.0 (unknown)"
   sodipodi:docname="network.svg"
   id="svg12"
   version="1"
   height="512"
   width="512">
  <metadata
     id="metadata18">
    <rdf:RDF>
      <cc:Work
         rdf:about="">
        <dc:format>image/svg+xml</dc:format>
        <dc:type
           rdf:resource="http://purl.org/dc/dcmitype/StillImage" />
        <dc:title></dc:title>
      </cc:Work>
    </rdf:RDF>
  </metadata>
  <defs
     id="defs16" />
  <sodipodi:namedview
     inkscape:current-layer="svg12"
     inkscape:window-maximized="1"
     inkscape:window-y="27"
     inkscape:window-x="0"
     inkscape:cy="437.79152"
     inkscape:cx="513.54661"
     inkscape:zoom="0.66412479"
     showgrid="false"
     id="namedview14"
     inkscape:window-height="1025"
     inkscape:window-width="1920"
     inkscape:pageshadow="2"
     inkscape:pageopacity="0"
     guidetolerance="10"
     gridtolerance="10"
     objecttolerance="10"
     borderopacity="1"
     bordercolor="#666666"
     pagecolor="#ffffff" />
  <path
     id="path2"
     d="M 21.427781,251.79636 C 21.328412,254.60891 21,257.37094 21,260.21718 21.000003,390.84086 126.15914,496 256.78283,496 c 130.62369,0 235.78282,-105.15914 235.78282,-235.78282 0,-2.84355 -0.32876,-5.60221 -0.42762,-8.42082 -4.44619,126.66591 -107.58434,227.36201 -235.36179,227.36201 -127.78082,0 -230.915591,-100.6961 -235.361781,-227.36201 z"
     style="opacity:0.2;stroke-width:8.42105" />
  <rect
     id="rect4"
     ry="235.78105"
     rx="235.78105"
     y="16"
     x="21.000006"
     height="471.57895"
     width="471.57895"
     style="fill:#02a8f3;stroke-width:8.42105" />
  <path
     id="path6"
     d="m 256.78948,16.016447 c -130.62369,0 -235.789473,105.149343 -235.789473,235.773023 0,0.95533 0.095,1.8873 0.148025,2.82896 C 24.108313,126.60723 128.04134,24.421053 256.78948,24.421053 c 128.74814,0 232.68117,102.186177 235.64145,230.197377 0.0528,-0.94166 0.14802,-1.87363 0.14802,-2.82896 0,-130.62368 -105.16578,-235.773023 -235.78947,-235.773023 z"
     style="opacity:0.2;fill:#ffffff;stroke-width:8.42105" />
  <path
     id="path8"
     d="m 256.78283,91.800876 c -93.01391,0 -168.416305,75.402384 -168.416305,168.416304 0,93.01391 75.402395,168.4163 168.416305,168.4163 93.01392,0 168.4163,-75.40239 168.4163,-168.4163 0,-93.01392 -75.40238,-168.416304 -168.4163,-168.416304 z m -15.75614,33.584584 c 1.83247,-0.19183 4.13775,0.10947 5.98668,0 0.21912,0.87643 -1.29816,4.021 -3.38807,8.58527 -13.30852,29.07351 -14.09476,63.11448 -1.74337,81.3135 2.23515,3.29959 4.27621,6.43384 4.27621,6.84191 0,0.40825 -2.40597,0.85522 -5.13145,0.85522 -6.39814,1e-5 -12.4639,-3.88774 -24.83482,-13.68383 -5.49563,-4.3517 -12.62637,-7.99913 -15.39431,-8.55238 -4.34651,-0.86835 -5.49515,-0.49212 -11.1181,5.13145 -5.23161,5.23073 -6.84191,8.07287 -6.84191,12.86146 0,18.15903 21.57121,32.55731 61.64299,41.05147 54.41908,11.53379 67.80617,21.87649 69.30726,50.492 1.88464,35.88307 -17.20086,62.93281 -59.04439,83.87922 -4.99432,2.50085 -8.16742,3.50102 -10.26287,4.30909 -0.92865,-0.0825 -1.67288,0.0825 -2.59861,0 -0.35605,-1.10937 -0.85522,-3.67559 -0.85522,-8.55239 0,-19.05858 -7.49567,-38.6993 -18.81525,-49.66965 -3.03852,-2.94516 -11.52964,-9.1738 -18.81527,-13.68383 -7.28537,-4.50976 -14.64442,-9.73818 -16.28244,-11.97333 -2.71388,-3.70911 -2.90798,-5.97656 -0.8224,-12.8286 3.80082,-12.51441 8.30986,-19.52625 17.10478,-27.43343 4.61083,-4.14542 9.24143,-7.58175 10.26287,-7.66427 1.02178,-0.0825 -5.87908,-2.18762 -16.24955,-4.30909 -10.36994,-2.12557 -25.57707,-6.56903 -33.42011,-9.40763 -14.34173,-5.18933 -33.70231,-16.09516 -41.08435,-23.97957 -0.31208,-0.33432 -0.58408,-0.55933 -0.85523,-0.85522 10.57674,-42.13112 40.25488,-76.64639 79.60301,-93.28683 8.23311,-3.48231 16.73081,-5.86464 25.69007,-7.69717 4.46265,-0.91214 9.07599,-1.27491 13.68383,-1.74337 z m 128.41743,64.20871 c 3.21717,1.98863 15.3806,28.29795 18.84816,41.11726 4.47683,16.54978 4.1528,45.16962 0,61.6101 -1.58059,6.25734 -3.63526,12.10003 -4.3091,12.82859 -0.67385,0.72859 -3.14502,-3.42548 -6.01957,-8.5195 -2.87473,-5.09323 -12.00655,-15.92781 -19.63759,-23.97959 -22.02675,-23.24266 -25.50905,-35.36332 -16.28244,-53.91295 4.65304,-9.35398 24.91064,-30.68054 27.40054,-29.14391 z"
     style="opacity:0.2;stroke-width:8.42105" />
  <path
     id="path10"
     d="m 256.78283,83.380295 c -93.01391,0 -168.416305,75.402385 -168.416305,168.416305 0,93.01392 75.402395,168.4163 168.416305,168.4163 93.01392,0 168.4163,-75.40238 168.4163,-168.4163 0,-93.01392 -75.40238,-168.416305 -168.4163,-168.416305 z m -15.75614,33.584585 c 1.83247,-0.19184 4.13775,0.10947 5.98668,0 0.21912,0.87643 -1.29816,4.02101 -3.38807,8.58527 -13.30852,29.0735 -14.09476,63.11448 -1.74337,81.3135 2.23515,3.29959 4.27621,6.43384 4.27621,6.84192 0,0.40825 -2.40597,0.85521 -5.13145,0.85521 -6.39814,2e-5 -12.4639,-3.88774 -24.83482,-13.68382 -5.49563,-4.35171 -12.62637,-7.99914 -15.39431,-8.55239 -4.34651,-0.86835 -5.49515,-0.49212 -11.1181,5.13145 -5.23161,5.23073 -6.84191,8.07286 -6.84191,12.86146 0,18.15903 21.57121,32.55732 61.64299,41.05147 54.41908,11.5338 67.80617,21.87649 69.30726,50.492 1.88464,35.88307 -17.20086,62.93282 -59.04439,83.87922 -4.99432,2.50085 -8.16742,3.50103 -10.26287,4.30908 -0.92865,-0.0825 -1.67288,0.0825 -2.59861,0 -0.35605,-1.10935 -0.85522,-3.67558 -0.85522,-8.55237 0,-19.05859 -7.49567,-38.69931 -18.81525,-49.66966 -3.03852,-2.94515 -11.52964,-9.17379 -18.81527,-13.68383 -7.28537,-4.50976 -14.64442,-9.73819 -16.28244,-11.97334 -2.71388,-3.7091 -2.90798,-5.97655 -0.8224,-12.82858 3.80082,-12.51441 8.30986,-19.52626 17.10478,-27.43344 4.61083,-4.14541 9.24143,-7.58175 10.26287,-7.66427 1.02178,-0.0825 -5.87908,-2.18761 -16.24955,-4.30908 -10.36994,-2.12559 -25.57707,-6.56903 -33.42011,-9.40764 -14.34173,-5.18932 -33.70231,-16.09516 -41.08435,-23.97956 -0.31208,-0.33432 -0.58408,-0.55933 -0.85523,-0.85522 10.57674,-42.13112 40.25488,-76.6464 79.60301,-93.28684 8.23311,-3.48231 16.73081,-5.86465 25.69007,-7.69717 4.46265,-0.91214 9.07599,-1.2749 13.68383,-1.74337 z m 128.41743,64.20872 c 3.21717,1.98862 15.3806,28.29795 18.84816,41.11725 4.47683,16.54978 4.1528,45.16963 0,61.6101 -1.58059,6.25735 -3.63526,12.10003 -4.3091,12.8286 -0.67385,0.72859 -3.14502,-3.42549 -6.01957,-8.51951 -2.87473,-5.09323 -12.00655,-15.92781 -19.63759,-23.97959 -22.02675,-23.24266 -25.50905,-35.36331 -16.28244,-53.91295 4.65304,-9.35398 24.91064,-30.68053 27.40054,-29.1439 z"
     style="fill:#ffffff;stroke-width:8.42105" />
</svg>
