<?xml version="1.0" encoding="UTF-8" standalone="no"?>
<svg
   xmlns:dc="http://purl.org/dc/elements/1.1/"
   xmlns:cc="http://creativecommons.org/ns#"
   xmlns:rdf="http://www.w3.org/1999/02/22-rdf-syntax-ns#"
   xmlns:svg="http://www.w3.org/2000/svg"
   xmlns="http://www.w3.org/2000/svg"
   xmlns:sodipodi="http://sodipodi.sourceforge.net/DTD/sodipodi-0.dtd"
   xmlns:inkscape="http://www.inkscape.org/namespaces/inkscape"
   inkscape:version="1.0 (unknown)"
   sodipodi:docname="screen.svg"
   id="svg16"
   version="1"
   height="512"
   width="512">
  <metadata
     id="metadata22">
    <rdf:RDF>
      <cc:Work
         rdf:about="">
        <dc:format>image/svg+xml</dc:format>
        <dc:type
           rdf:resource="http://purl.org/dc/dcmitype/StillImage" />
        <dc:title></dc:title>
      </cc:Work>
    </rdf:RDF>
  </metadata>
  <defs
     id="defs20" />
  <sodipodi:namedview
     inkscape:current-layer="svg16"
     inkscape:window-maximized="1"
     inkscape:window-y="27"
     inkscape:window-x="0"
     inkscape:cy="119.02465"
     inkscape:cx="417.60629"
     inkscape:zoom="0.91531353"
     showgrid="false"
     id="namedview18"
     inkscape:window-height="1025"
     inkscape:window-width="1920"
     inkscape:pageshadow="2"
     inkscape:pageopacity="0"
     guidetolerance="10"
     gridtolerance="10"
     objecttolerance="10"
     borderopacity="1"
     bordercolor="#666666"
     pagecolor="#ffffff" />
  <g
     transform="matrix(9.2307692,0,0,9.2307692,-39.384615,-42.076923)"
     id="g31">
    <rect
       style="opacity:0.2"
       width="42"
       height="32"
       x="-56"
       y="-48"
       rx="2.5"
       ry="2.5"
       transform="matrix(0,-1,-1,0,0,0)"
       id="rect2" />
    <rect
       style="fill:#8e8e8e"
       width="42"
       height="32"
       x="-55"
       y="-48"
       rx="2.5"
       ry="2.5"
       transform="matrix(0,-1,-1,0,0,0)"
       id="rect4" />
    <rect
       style="opacity:0.2"
       width="40"
       height="52"
       x="-50"
       y="-58"
       rx="2.5"
       ry="2.5"
       transform="matrix(0,-1,-1,0,0,0)"
       id="rect6" />
    <rect
       style="fill:#4f4f4f"
       width="40"
       height="52"
       x="-49"
       y="-58"
       rx="2.5"
       ry="2.5"
       transform="matrix(0,-1,-1,0,0,0)"
       id="rect8" />
    <rect
       style="fill:#333333"
       width="32"
       height="44"
       x="-45"
       y="-54"
       rx="0"
       ry="0"
       transform="matrix(0,-1,-1,0,0,0)"
       id="rect10" />
    <path
       style="opacity:0.1;fill:#ffffff"
       d="M 8.5,9 C 7.115,9 6,10.115 6,11.5 v 1 C 6,11.115 7.115,10 8.5,10 h 47 c 1.385,0 2.5,1.115 2.5,2.5 v -1 C 58,10.115 56.885,9 55.5,9 Z"
       id="path12" />
    <rect
       style="opacity:0.1;fill:#ffffff"
       width="44"
       height="1"
       x="10"
       y="45"
       id="rect14" />
  </g>
</svg>
