<?xml version="1.0" encoding="UTF-8" standalone="no"?>
<svg
   xmlns:dc="http://purl.org/dc/elements/1.1/"
   xmlns:cc="http://creativecommons.org/ns#"
   xmlns:rdf="http://www.w3.org/1999/02/22-rdf-syntax-ns#"
   xmlns:svg="http://www.w3.org/2000/svg"
   xmlns="http://www.w3.org/2000/svg"
   xmlns:sodipodi="http://sodipodi.sourceforge.net/DTD/sodipodi-0.dtd"
   xmlns:inkscape="http://www.inkscape.org/namespaces/inkscape"
   inkscape:version="1.0 (unknown)"
   sodipodi:docname="sound.svg"
   id="svg20"
   version="1"
   height="512"
   width="512">
  <metadata
     id="metadata26">
    <rdf:RDF>
      <cc:Work
         rdf:about="">
        <dc:format>image/svg+xml</dc:format>
        <dc:type
           rdf:resource="http://purl.org/dc/dcmitype/StillImage" />
        <dc:title></dc:title>
      </cc:Work>
    </rdf:RDF>
  </metadata>
  <defs
     id="defs24" />
  <sodipodi:namedview
     inkscape:current-layer="svg20"
     inkscape:window-maximized="1"
     inkscape:window-y="27"
     inkscape:window-x="0"
     inkscape:cy="210.30091"
     inkscape:cx="-687.15134"
     inkscape:zoom="0.70024693"
     showgrid="false"
     id="namedview22"
     inkscape:window-height="1025"
     inkscape:window-width="1920"
     inkscape:pageshadow="2"
     inkscape:pageopacity="0"
     guidetolerance="10"
     gridtolerance="10"
     objecttolerance="10"
     borderopacity="1"
     bordercolor="#666666"
     pagecolor="#ffffff" />
  <g
     transform="matrix(9.0566038,0,0,9.0566038,-23.679246,-38.339623)"
     id="g37">
    <rect
       style="fill:#4f4f4f"
       width="40"
       height="52"
       x="-52"
       y="6"
       rx="2.5"
       ry="2.5999999"
       transform="scale(-1,1)"
       id="rect2" />
    <circle
       style="opacity:0.4"
       cx="-36"
       cy="32"
       r="18"
       transform="rotate(-90)"
       id="circle4" />
    <circle
       style="opacity:0.2"
       cx="-37"
       cy="-32"
       r="14"
       transform="matrix(0,-1,-1,0,0,0)"
       id="circle6" />
    <circle
       style="fill:#fec006"
       cx="-36"
       cy="-32"
       r="14"
       transform="matrix(0,-1,-1,0,0,0)"
       id="circle8" />
    <circle
       style="fill:#3f3f3f"
       cx="-36"
       cy="-32"
       r="6"
       transform="matrix(0,-1,-1,0,0,0)"
       id="circle10" />
    <circle
       style="opacity:0.4"
       cx="14"
       cy="-20"
       r="2"
       transform="rotate(90)"
       id="circle12" />
    <circle
       style="opacity:0.4"
       cx="14"
       cy="-44"
       r="2"
       transform="rotate(90)"
       id="circle14" />
    <path
       style="opacity:0.2"
       d="m 12,55.398438 v 1 C 12,57.838437 13.115,59 14.5,59 h 35 c 1.384,0 2.5,-1.161563 2.5,-2.601562 v -1 C 52,56.838437 50.884,58 49.5,58 h -35 C 13.115,58 12,56.838437 12,55.398438 Z"
       id="path16" />
    <path
       style="opacity:0.1;fill:#ffffff"
       d="M 14.5,6 C 13.115,6 12,7.1606587 12,8.6004338 V 9.6 c 0,-1.4397751 1.115,-2.6004338 2.5,-2.6004338 h 35 c 1.384,0 2.5,1.1606587 2.5,2.6004338 V 8.6004338 C 52,7.1606587 50.884,6 49.5,6 Z"
       id="path18" />
  </g>
</svg>
